<svg width="19" height="19" viewBox="0 0 19 19" fill="none" xmlns="http://www.w3.org/2000/svg">
<path fill-rule="evenodd" clip-rule="evenodd" d="M9.5 0.75C7.1235 0.75 6.826 0.7605 5.89237 0.8025C4.96137 0.845375 4.32525 0.99325 3.76875 1.20938C3.18468 1.42886 2.65553 1.77316 2.21825 2.21825C1.77319 2.65555 1.42889 3.18469 1.20938 3.76875C0.99325 4.32525 0.845375 4.96137 0.8025 5.89237C0.759625 6.826 0.75 7.1235 0.75 9.5C0.75 11.8765 0.759625 12.174 0.8025 13.1076C0.845375 14.0386 0.99325 14.6747 1.20938 15.2312C1.42891 15.8153 1.77321 16.3444 2.21825 16.7817C2.65557 17.2268 3.1847 17.5711 3.76875 17.7906C4.32525 18.0068 4.96137 18.1546 5.89237 18.1975C6.826 18.2395 7.1235 18.25 9.5 18.25C11.8765 18.25 12.174 18.2395 13.1076 18.1975C14.0386 18.1546 14.6747 18.0068 15.2312 17.7906C15.8153 17.5711 16.3444 17.2268 16.7817 16.7817C17.2268 16.3444 17.5711 15.8153 17.7906 15.2312C18.0068 14.6747 18.1546 14.0386 18.1975 13.1076C18.2395 12.174 18.25 11.8765 18.25 9.5C18.25 7.1235 18.2395 6.826 18.1975 5.89237C18.1546 4.96137 18.0068 4.32525 17.7906 3.76875C17.5711 3.18469 17.2268 2.65555 16.7817 2.21825C16.3445 1.77316 15.8153 1.42886 15.2312 1.20938C14.6747 0.99325 14.0386 0.845375 13.1076 0.8025C12.174 0.7605 11.8765 0.75 9.5 0.75ZM9.5 2.32675C11.8363 2.32675 12.1128 2.3355 13.035 2.3775C13.889 2.41687 14.3519 2.55862 14.6608 2.6785C15.0685 2.83775 15.3608 3.02763 15.667 3.333C15.9733 3.63925 16.1622 3.9315 16.3215 4.33925C16.4405 4.64813 16.584 5.111 16.6225 5.96413C16.6645 6.88725 16.6733 7.16288 16.6733 9.5C16.6733 11.8363 16.6645 12.1128 16.6225 13.035C16.5831 13.889 16.4405 14.3519 16.3215 14.6608C16.1812 15.0408 15.9576 15.3847 15.667 15.667C15.3608 15.9733 15.0685 16.1622 14.6608 16.3215C14.3519 16.4405 13.889 16.584 13.0359 16.6225C12.1136 16.6645 11.8371 16.6733 9.5 16.6733C7.16375 16.6733 6.88637 16.6645 5.965 16.6225C5.111 16.5831 4.64813 16.4405 4.33925 16.3215C3.95914 16.1813 3.61529 15.9576 3.333 15.667C3.04238 15.3847 2.81873 15.0409 2.6785 14.6608C2.55862 14.3519 2.416 13.889 2.3775 13.0359C2.3355 12.1128 2.32675 11.8371 2.32675 9.5C2.32675 7.16375 2.3355 6.88725 2.3775 5.965C2.41687 5.111 2.55862 4.64813 2.6785 4.33925C2.83775 3.9315 3.02763 3.63925 3.333 3.333C3.63925 3.02675 3.9315 2.83775 4.33925 2.6785C4.64813 2.55862 5.111 2.416 5.96413 2.3775C6.88725 2.3355 7.16288 2.32675 9.5 2.32675ZM9.5 12.4164C8.72653 12.4164 7.98474 12.1091 7.43781 11.5622C6.89089 11.0153 6.58362 10.2735 6.58362 9.5C6.58362 8.72653 6.89089 7.98474 7.43781 7.43781C7.98474 6.89089 8.72653 6.58362 9.5 6.58362C10.2735 6.58362 11.0153 6.89089 11.5622 7.43781C12.1091 7.98474 12.4164 8.72653 12.4164 9.5C12.4164 10.2735 12.1091 11.0153 11.5622 11.5622C11.0153 12.1091 10.2735 12.4164 9.5 12.4164ZM9.5 5.00688C8.90995 5.00687 8.32569 5.12309 7.78056 5.34889C7.23542 5.57469 6.74011 5.90566 6.32288 6.32288C5.90566 6.74011 5.57469 7.23542 5.34889 7.78056C5.12309 8.32569 5.00688 8.90995 5.00688 9.5C5.00688 10.09 5.12309 10.6743 5.34889 11.2194C5.57469 11.7646 5.90566 12.2599 6.32288 12.6771C6.74011 13.0943 7.23542 13.4253 7.78056 13.6511C8.32569 13.8769 8.90995 13.9931 9.5 13.9931C10.6917 13.9931 11.8345 13.5197 12.6771 12.6771C13.5197 11.8345 13.9931 10.6917 13.9931 9.5C13.9931 8.30835 13.5197 7.16551 12.6771 6.32288C11.8345 5.48026 10.6917 5.00688 9.5 5.00688ZM15.2207 4.82925C15.2207 4.96714 15.1936 5.10368 15.1408 5.23107C15.0881 5.35846 15.0107 5.47421 14.9132 5.57171C14.8157 5.66921 14.7 5.74656 14.5726 5.79932C14.4452 5.85209 14.3086 5.87925 14.1707 5.87925C14.0329 5.87925 13.8963 5.85209 13.7689 5.79932C13.6415 5.74656 13.5258 5.66921 13.4283 5.57171C13.3308 5.47421 13.2534 5.35846 13.2007 5.23107C13.1479 5.10368 13.1208 4.96714 13.1208 4.82925C13.1208 4.55077 13.2314 4.2837 13.4283 4.08679C13.6252 3.88987 13.8923 3.77925 14.1707 3.77925C14.4492 3.77925 14.7163 3.88987 14.9132 4.08679C15.1101 4.2837 15.2207 4.55077 15.2207 4.82925Z" fill="white"/>
</svg>
